<?xml version="1.0" encoding="UTF-8" standalone="no"?>
<!-- Created with Inkscape (http://www.inkscape.org/) -->

<svg
   xmlns:dc="http://purl.org/dc/elements/1.1/"
   xmlns:cc="http://creativecommons.org/ns#"
   xmlns:rdf="http://www.w3.org/1999/02/22-rdf-syntax-ns#"
   xmlns:svg="http://www.w3.org/2000/svg"
   xmlns="http://www.w3.org/2000/svg"
   xmlns:sodipodi="http://sodipodi.sourceforge.net/DTD/sodipodi-0.dtd"
   xmlns:inkscape="http://www.inkscape.org/namespaces/inkscape"
   width="744.09448819"
   height="1052.3622047"
   id="svg2"
   version="1.1"
   inkscape:version="0.48.4 r9939"
   sodipodi:docname="logo.png">
  <defs
     id="defs4" />
  <sodipodi:namedview
     id="base"
     pagecolor="#ffffff"
     bordercolor="#666666"
     borderopacity="1.0"
     inkscape:pageopacity="0.0"
     inkscape:pageshadow="2"
     inkscape:zoom="0.98994949"
     inkscape:cx="184.51944"
     inkscape:cy="627.95722"
     inkscape:document-units="px"
     inkscape:current-layer="layer1"
     showgrid="false"
     inkscape:window-width="1920"
     inkscape:window-height="1025"
     inkscape:window-x="0"
     inkscape:window-y="27"
     inkscape:window-maximized="1" />
  <metadata
     id="metadata7">
    <rdf:RDF>
      <cc:Work
         rdf:about="">
        <dc:format>image/svg+xml</dc:format>
        <dc:type
           rdf:resource="http://purl.org/dc/dcmitype/StillImage" />
        <dc:title></dc:title>
      </cc:Work>
    </rdf:RDF>
  </metadata>
  <g
     inkscape:label="Layer 1"
     inkscape:groupmode="layer"
     id="layer1">
    <path
       style="fill:#999999;fill-opacity:1;fill-rule:nonzero;stroke:none"
       id="path3239"
       d="m 299.53733,259.30964 c 5.13694,6.66476 10.1713,13.53182 14.11575,20.9901 1.20689,2.282 2.24798,4.64792 3.37201,6.97184 8.66896,18.2864 9.91748,38.30803 10.46301,58.19727 -0.48267,28.3529 -4.13657,56.52118 -7.58033,84.63016 -3.39411,25.64448 -7.09085,51.24723 -10.79056,76.84892 -1.66928,12.27962 -0.91705,6.33442 -2.27761,17.83306 0,0 -56.96583,28.03711 -56.96583,28.03711 l 0,0 c 1.90189,-11.87435 0.88655,-5.74989 3.05952,-18.37111 4.61247,-25.70761 8.77026,-51.50432 12.38753,-77.37079 3.40527,-27.58192 6.80676,-55.31204 6.66618,-83.14452 -0.0926,-3.70595 -0.0718,-7.41646 -0.27793,-11.11781 -0.83979,-15.08872 -3.67398,-30.15369 -10.21796,-43.86003 -4.91528,-9.09608 -10.59789,-18.11905 -18.35027,-25.08436 0,0 56.39643,-34.55984 56.39643,-34.55984 z"
       inkscape:connector-curvature="0" />
    <path
       style="fill:#999999;fill-opacity:1;fill-rule:nonzero;stroke:none"
       id="path3255"
       d="m 395.14169,291.63586 c -1.39514,-2.56389 -2.05604,-5.61891 -3.65325,-8.07679 -0.0926,-0.14245 -0.47849,-0.40458 -0.45123,-0.23703 0.15302,0.94176 0.571,1.82077 0.85647,2.73119 18.8431,-10.48582 37.68619,-20.97167 56.52926,-31.45746 -0.60259,0.57175 -1.32134,1.04193 -1.80778,1.71531 -0.78043,1.08032 -1.35184,2.29939 -1.95197,3.48936 -2.79484,5.54156 -5.01015,11.39135 -7.35027,17.13074 -7.28646,17.9893 -11.28078,36.51416 -14.1295,55.63971 -2.92105,22.22904 -2.30946,44.7026 -1.32679,67.03869 0.94394,14.11528 3.3263,28.20537 7.54855,41.72675 2.47958,7.9408 3.58019,9.97384 6.81682,17.48579 5.37942,9.9121 10.48109,20.48672 18.28487,28.80441 1.18964,1.26802 2.52809,2.38774 3.79213,3.58159 1.35426,0.97066 2.59127,2.13041 4.06275,2.91193 6.47986,3.44158 14.55103,1.76545 20.67251,-1.61755 2.12854,-1.17637 4.04183,-2.70588 6.06274,-4.0588 -75.42862,43.17231 -49.16803,31.75223 -30.20705,8.73401 6.50067,-7.89165 11.84094,-15.7013 17.01273,-24.53052 2.59148,-4.42425 4.85782,-9.03109 7.28668,-13.54658 9.39174,-19.94924 16.00766,-41.20074 19.785,-62.92811 2.31044,-13.28956 2.44468,-19.26368 3.45283,-32.59795 0.83658,-20.795 0.48843,-42.04537 -5.14227,-62.24989 -3.49202,-12.53048 -5.67568,-15.9053 -11.1589,-27.52408 -8.53911,-16.59477 -20.38229,-29.69233 -36.89583,-38.655 -10.9515,-5.94382 -16.20171,-7.00145 -28.07052,-10.80512 -4.98686,-1.05422 -9.92108,-2.39894 -14.96061,-3.16268 -24.10233,-3.65273 -49.17595,-2.14986 -72.78412,3.83948 -6.50687,1.65074 -12.80818,4.02601 -19.21221,6.039 10.63189,-9.07727 -51.67474,25.35817 -39.21384,18.13759 9.72736,-5.6367 18.63127,-14.02754 29.7036,-15.9763 7.91618,-1.39326 -13.2621,9.11546 -19.50294,14.18094 -16.40745,13.31738 -21.54857,19.94699 -35.98998,35.46455 -24.14295,27.919 -44.23031,59.15886 -57.87928,93.53083 -8.86193,22.31688 -9.43846,28.32701 -15.06479,51.63793 -1.15077,8.40484 -2.83906,16.75344 -3.45236,25.21449 -2.21053,30.49617 2.98482,63.7454 17.17573,91.08795 3.31247,6.38228 7.70493,12.14321 11.5574,18.21484 5.19561,5.21154 9.96588,10.88497 15.58679,15.63473 18.12379,15.31475 39.73862,24.12935 62.7917,28.98486 22.42025,4.72223 29.91064,3.8082 52.97758,4.35791 53.11843,-2.45426 104.48167,-17.54616 154.04817,-35.94901 11.03354,-4.09651 21.93012,-8.55282 32.89518,-12.82921 32.08581,-13.05766 63.36575,-27.9407 93.87708,-44.3268 9.08725,-4.88034 18.02641,-10.03148 27.03966,-15.04717 0,0 -42.56335,34.31306 -42.56335,34.31306 l 0,0 c -8.69383,4.69681 -17.32629,9.50899 -26.08149,14.09034 -30.48654,15.95267 -61.61645,30.64242 -93.58604,43.39872 -11.14665,4.33993 -22.21666,8.88207 -33.43989,13.01982 -41.25586,15.21015 -84.07801,28.36395 -127.87104,33.71819 -9.77192,1.19479 -19.63385,1.47731 -29.45077,2.21595 -22.78355,-0.69171 -32.66907,0.1024 -54.87422,-4.79627 -13.61133,-3.00283 -34.68755,-10.46985 -46.7884,-17.47033 -15.1078,-8.74005 -22.53989,-17.88358 -34.69073,-30.12344 -3.97083,-6.38566 -8.50801,-12.4522 -11.91243,-19.15693 -14.07451,-27.71891 -19.60463,-63.59785 -17.37495,-94.39963 0.63031,-8.70729 2.50059,-17.28017 3.75087,-25.92025 2.02017,-8.92592 3.55127,-17.97679 6.06056,-26.77773 2.51058,-8.80567 5.69329,-17.41395 8.97619,-25.96181 3.39499,-8.83962 6.8954,-17.6609 11.04637,-26.17172 11.93541,-24.47172 28.04853,-47.4721 45.10135,-68.60107 13.27448,-14.92801 19.77642,-23.30039 34.96368,-36.23919 6.08012,-5.17993 12.3453,-10.20836 19.10482,-14.46371 18.85965,-11.87279 60.75545,-38.41568 89.12613,-50.89734 6.69304,-2.94459 13.62342,-5.31729 20.43511,-7.9759 6.57094,-1.87009 13.05258,-4.08855 19.71283,-5.61028 11.18685,-2.55595 28.50903,-4.8495 39.97304,-5.25093 5.93749,-0.20784 11.88776,0.11133 17.81656,0.49332 5.97949,0.38538 11.97334,0.82794 17.88464,1.8076 5.1582,0.85485 10.16482,2.45538 15.24722,3.68311 11.14231,3.81883 19.16048,5.9989 29.50155,11.81148 12.46802,7.00821 23.64112,17.34923 31.52076,29.2795 2.60203,3.93973 4.52843,8.28622 6.79264,12.42932 5.1047,11.13898 8.22297,16.87561 11.66049,28.76905 6.00809,20.78702 5.91687,42.57208 5.61259,64.00185 -1.31591,16.922 -2.84819,33.81737 -6.51493,50.43523 -3.56691,16.16551 -9.21869,31.83124 -15.36991,47.1607 -2.34825,4.62814 -4.55786,9.3293 -7.04463,13.88448 -6.81604,12.48538 -14.23878,23.84885 -23.49115,34.64902 -2.35957,2.75433 -4.28796,6.05005 -7.30372,8.06474 -19.9574,13.33277 -40.86864,25.17924 -61.30295,37.76884 -2.41046,1.09727 -4.71972,2.4516 -7.23137,3.29184 -11.19289,3.74444 -20.52906,0.73973 -29.03228,-6.82849 -3.69736,-3.90807 -4.6704,-4.6551 -7.8076,-9.14479 -5.68548,-8.13665 -10.01189,-17.20001 -14.20058,-26.15643 -1.19754,-2.94364 -2.49167,-5.84987 -3.59269,-8.83098 -6.24221,-16.90136 -9.74636,-34.76777 -11.1882,-52.69478 -0.84732,-22.64647 -1.84982,-45.43985 0.82476,-68.00241 0.83425,-6.98613 1.62673,-14.51662 2.86575,-21.45821 2.10873,-11.8139 5.7826,-23.28422 9.16006,-34.77443 2.39621,-6.88714 5.23222,-13.68319 7.33241,-20.66972 0.29332,-0.97586 -0.14968,-2.43602 0.71751,-2.97161 19.11497,-11.80985 38.96417,-22.38779 58.4462,-33.58172 0.84065,0.89359 1.75379,1.72411 2.52196,2.68071 2.18199,2.71726 2.30702,6.70612 4.57423,9.41234 0,0 -57.6277,32.8123 -57.6277,32.8123 z"
       inkscape:connector-curvature="0" />
    <path
       style="fill:#000000;fill-opacity:1;fill-rule:nonzero;stroke:none"
       id="path3239-4"
       d="m 318.17611,249.7422 c 5.13693,6.66476 10.17127,13.53182 14.11572,20.99007 1.20689,2.28202 2.24801,4.64793 3.37201,6.97187 8.66896,18.28639 9.91752,38.30803 10.46302,58.19727 -0.48267,28.3529 -4.13656,56.52115 -7.58032,84.63013 -3.39413,25.64451 -7.09084,51.24726 -10.79058,76.84895 -1.66928,12.27962 -0.91702,6.33441 -2.2776,17.83306 0,0 -56.96581,28.03711 -56.96581,28.03711 l 0,0 c 1.90189,-11.87435 0.88653,-5.74989 3.0595,-18.37113 4.61247,-25.70761 8.77026,-51.5043 12.38754,-77.37077 3.40525,-27.58192 6.80674,-55.31204 6.66616,-83.14453 -0.0926,-3.70595 -0.0718,-7.41645 -0.27792,-11.11781 -0.83978,-15.08874 -3.67399,-30.15368 -10.21794,-43.86005 -4.91531,-9.09605 -10.59788,-18.11904 -18.3503,-25.08436 0,0 56.39643,-34.55981 56.39643,-34.55981 z"
       inkscape:connector-curvature="0" />
    <path
       style="fill:#000000;fill-opacity:1;fill-rule:nonzero;stroke:none"
       id="path3255-1"
       d="m 413.78048,282.06842 c -1.39517,-2.5639 -2.05603,-5.61891 -3.65327,-8.0768 -0.0926,-0.14244 -0.47848,-0.40457 -0.45124,-0.23703 0.15301,0.94177 0.571,1.82078 0.8565,2.7312 18.84308,-10.48582 37.68615,-20.97167 56.52922,-31.45749 -0.60257,0.57178 -1.32131,1.04196 -1.80778,1.71531 -0.78041,1.08035 -1.35184,2.29942 -1.95197,3.48939 -2.79482,5.54155 -5.01015,11.39132 -7.35027,17.13071 -7.28643,17.98932 -11.28078,36.51416 -14.1295,55.63972 -2.92105,22.22905 -2.30945,44.70262 -1.32678,67.03871 0.94393,14.11528 3.32629,28.20535 7.54854,41.72675 2.4796,7.9408 3.5802,9.97382 6.81683,17.48579 5.37941,9.9121 10.48108,20.48672 18.28486,28.80441 1.18964,1.268 2.52809,2.38772 3.79215,3.58159 1.35424,0.97063 2.59125,2.1304 4.06275,2.91193 6.47984,3.44158 14.55101,1.76544 20.67251,-1.61755 2.12854,-1.17637 4.04182,-2.70589 6.06275,-4.05881 -75.42864,43.17232 -49.16805,31.75224 -30.20704,8.73401 6.50063,-7.89164 11.84093,-15.70129 17.01269,-24.53053 2.59148,-4.42423 4.85783,-9.03108 7.2867,-13.54659 9.39172,-19.94921 16.00765,-41.20074 19.78498,-62.9281 2.31044,-13.28955 2.44471,-19.26367 3.45284,-32.59793 0.83657,-20.79501 0.48842,-42.04537 -5.14228,-62.24989 -3.49202,-12.53049 -5.67568,-15.9053 -11.15887,-27.52409 -8.53914,-16.59477 -20.38227,-29.69232 -36.89586,-38.65499 -10.95147,-5.94382 -16.2017,-7.00145 -28.07049,-10.80512 -4.98686,-1.05424 -9.92111,-2.39894 -14.96063,-3.16268 -24.10234,-3.65273 -49.17596,-2.14986 -72.7841,3.83948 -6.50689,1.65071 -12.80816,4.02599 -19.21224,6.039 10.63189,-9.07727 -51.6747,25.35817 -39.21383,18.13758 9.72736,-5.63671 18.63127,-14.02757 29.70359,-15.9763 7.91618,-1.39325 -13.26209,9.11546 -19.50294,14.18095 -16.40741,13.31738 -21.54857,19.94696 -35.98998,35.46455 -24.14294,27.91897 -44.23029,59.15884 -57.87927,93.53083 -8.86193,22.31688 -9.43847,28.32701 -15.06474,51.63793 -1.15077,8.40484 -2.83906,16.75343 -3.45238,25.21449 -2.21054,30.49615 2.98483,63.74538 17.17569,91.08794 3.31247,6.38228 7.70493,12.14322 11.55742,18.21485 5.19559,5.21153 9.96587,10.88497 15.58677,15.63473 18.12382,15.31475 39.73863,24.12929 62.79172,28.98481 22.42023,4.72222 29.91063,3.80818 52.97759,4.35791 53.11842,-2.45428 104.48164,-17.54611 154.04817,-35.94898 11.03351,-4.09649 21.93009,-8.5528 32.89516,-12.82922 32.08581,-13.05764 63.36574,-27.94068 93.87707,-44.32679 9.08728,-4.88033 18.02644,-10.03147 27.03966,-15.04715 0,0 -42.56331,34.31303 -42.56331,34.31303 l 0,0 c -8.69387,4.69679 -17.32632,9.50902 -26.08153,14.09035 -30.48653,15.95269 -61.61643,30.64242 -93.58603,43.39874 -11.14666,4.33993 -22.21667,8.88204 -33.4399,13.01976 -41.25585,15.21013 -84.078,28.36395 -127.87104,33.71822 -9.77187,1.19475 -19.6338,1.47727 -29.45075,2.21592 -22.78355,-0.69168 -32.66906,0.1024 -54.87423,-4.79628 -13.61133,-3.00279 -34.68756,-10.46985 -46.7884,-17.47032 -15.10778,-8.74004 -22.53984,-17.88355 -34.69068,-30.12338 -3.97085,-6.38566 -8.50801,-12.4522 -11.91243,-19.15696 -14.07449,-27.71888 -19.60463,-63.59784 -17.37498,-94.39961 0.63034,-8.7073 2.50062,-17.28016 3.7509,-25.92027 2.02019,-8.9259 3.55124,-17.97676 6.06053,-26.7777 2.51061,-8.80567 5.69332,-17.41398 8.9762,-25.96181 3.39501,-8.83962 6.89542,-17.6609 11.04636,-26.17173 11.93544,-24.47174 28.04856,-47.47211 45.10135,-68.60108 13.27445,-14.92799 19.77639,-23.30039 34.96366,-36.23917 6.08011,-5.17993 12.34532,-10.20836 19.10481,-14.46374 18.85967,-11.87276 60.75545,-38.41565 89.12617,-50.89731 6.69305,-2.94459 13.62341,-5.31729 20.43512,-7.97591 6.57091,-1.87011 13.05254,-4.08854 19.71281,-5.61027 11.18682,-2.55598 28.509,-4.84952 39.97302,-5.25095 5.93751,-0.20782 11.88775,0.11134 17.81655,0.49331 5.9795,0.3854 11.97334,0.82795 17.88464,1.80759 5.15825,0.85489 10.16482,2.45541 15.24722,3.6831 11.14231,3.81888 19.1605,5.99895 29.50155,11.81153 12.46803,7.00821 23.64112,17.34923 31.52076,29.2795 2.60207,3.93968 4.52843,8.28622 6.79268,12.42929 5.10469,11.13898 8.22294,16.87564 11.66049,28.76905 6.00806,20.78705 5.91683,42.57208 5.61255,64.00188 -1.31591,16.922 -2.84819,33.81737 -6.51493,50.43522 -3.56689,16.16548 -9.21868,31.83125 -15.36991,47.1607 -2.34825,4.62813 -4.55786,9.32929 -7.04462,13.88449 -6.81602,12.48538 -14.23879,23.84885 -23.49116,34.64902 -2.35956,2.75433 -4.28793,6.05002 -7.30372,8.06474 -19.9574,13.33277 -40.86864,25.17923 -61.30295,37.76883 -2.41045,1.09727 -4.71971,2.45161 -7.23136,3.29183 -11.19286,3.74442 -20.52905,0.73973 -29.03226,-6.82847 -3.69737,-3.90807 -4.67043,-4.6551 -7.80762,-9.14479 -5.68548,-8.13667 -10.01186,-17.20001 -14.20056,-26.15643 -1.19757,-2.94364 -2.49169,-5.84987 -3.59272,-8.83098 -6.24217,-16.90136 -9.74633,-34.76778 -11.18817,-52.69478 -0.8473,-22.64647 -1.84985,-45.43986 0.82474,-68.00243 0.83424,-6.98611 1.62674,-14.5166 2.86575,-21.45821 2.10872,-11.81388 5.7826,-23.28422 9.16005,-34.77444 2.39621,-6.88716 5.23222,-13.68319 7.33241,-20.6697 0.29332,-0.97585 -0.14968,-2.43601 0.71751,-2.9716 19.11497,-11.80985 38.96417,-22.38779 58.44621,-33.58172 0.84066,0.89356 1.75382,1.72411 2.52197,2.68071 2.18198,2.71723 2.30703,6.70611 4.57421,9.41234 0,0 -57.62766,32.8123 -57.62766,32.8123 z"
       inkscape:connector-curvature="0" />
  </g>
</svg>
